<?xml version="1.0" encoding="UTF-8"?>
<svg width="55px" height="40px" viewBox="0 0 55 40" version="1.1" xmlns="http://www.w3.org/2000/svg" xmlns:xlink="http://www.w3.org/1999/xlink">
    <!-- Generator: sketchtool 59.1 (101010) - https://sketch.com -->
    <title>ADC4BF87-4F7B-4D06-AA61-6626377B2A6B</title>
    <desc>Created with sketchtool.</desc>
    <g id="Screens" stroke="none" stroke-width="1" fill="none" fill-rule="evenodd">
        <g id="Desktop-Header-Footer-Search-Results-Riding-&amp;-Boarding-Filter" transform="translate(-30.000000, -20.000000)">
            <g id="Desktop-Header">
                <g id="Logo/Nav/Small">
                    <g transform="translate(30.000000, 20.000000)">
                        <path d="M44.2696384,31.3582818 C46.047865,32.0267109 46.8984067,33.4442591 46.9976891,35.3065226 C47.022977,35.7808791 46.8432061,36.00561 46.3358231,35.9959718 C45.3638106,35.9774702 44.3911584,35.9905956 43.4187522,35.9905956 L43.4187522,35.9944703 C42.4689281,35.9944703 41.5190548,35.9842024 40.5694275,35.9978122 C39.8526562,36.0080801 39.7132772,36.2195402 39.9608435,36.8570688 C40.7854085,38.9808241 43.1227255,39.4564399 44.753111,37.8323234 C45.0167159,37.5697176 46.0538672,37.5792105 46.1972805,37.8803693 C46.2576469,38.007071 46.1648587,38.2590699 46.0625261,38.3973472 C45.3824076,39.3165159 44.3987842,39.7553223 43.3032836,39.9356882 C41.3084857,40.2640666 39.3684457,39.3103164 38.5200686,37.6367494 C37.5988288,35.8195289 37.9152236,33.6324228 39.3600819,32.2700886 C40.7801934,30.9311478 42.4988408,30.6926619 44.2696384,31.3582818 Z M42.6382198,32.2192336 C41.3321994,32.1943873 40.1997016,32.9895665 39.8677109,34.1645119 C39.7123424,34.7146182 39.8812897,34.9437566 40.4901197,34.9571242 C41.1687131,34.9719448 41.8478477,34.9605145 42.5267855,34.9605145 L42.5267855,34.9578991 C43.2509857,34.9578991 43.9750876,34.9563977 44.6992879,34.9584319 C45.1712481,34.9597396 45.3635646,34.7471655 45.2567057,34.2831737 C44.9959542,33.1510918 43.8457451,32.2422879 42.6382198,32.2192336 Z" id="Fill-7" fill="#003781"></path>
                        <path d="M32.0170286,40 C31.0596034,39.9223586 30.1780957,39.6297287 29.3548944,39.090058 C29.0341479,38.879759 28.8800497,38.6280287 29.1099831,38.173106 C29.3409453,37.7161529 29.5628961,37.7805962 29.8870167,38.019902 C30.6972977,38.6180697 31.5940711,38.9417851 32.537753,38.6945992 C32.9119915,38.5966047 33.3279127,38.2458646 33.5373546,37.8670847 C33.8244011,37.3480087 33.5441028,36.7314217 32.9907483,36.502075 C32.2442052,36.1926695 31.4830546,35.9294816 30.7221509,35.6709346 C29.6518986,35.3072866 29.2007962,34.764135 29.1822797,33.7700251 C29.1602245,32.5815215 29.6953918,31.6387535 30.6480027,31.2725431 C31.9019384,30.7904508 33.1086777,30.9501814 34.2509796,31.7337989 C34.4840403,31.8936262 34.7517474,32.0424309 34.5219785,32.4444162 C34.3360319,32.7696786 34.1582738,33.0829516 33.7574126,32.7621369 C33.1034519,32.238855 32.3643976,32.1107901 31.5892569,32.1861593 C30.9745922,32.2459616 30.5295384,32.6771471 30.4774043,33.2911235 C30.4165879,34.0070586 30.7730918,34.3359953 31.3035682,34.5127915 C32.0119674,34.7489065 32.7209427,34.9846831 33.4216884,35.2499499 C34.5270396,35.6683724 35.0220056,36.3526418 34.9992509,37.3803029 C34.9743565,38.5017042 34.3688266,39.3769348 33.3442072,39.7067417 C32.9114978,39.8459741 32.4599838,39.9046645 32.0170286,40" id="Fill-11" fill="#003781"></path>
                        <path d="M24.8010843,32.7596398 C24.9748934,32.5996879 25.1320379,32.4158835 25.3257122,32.2842438 C25.9100378,31.8870699 26.4904004,31.4779196 27.1096808,31.1399259 C27.3910472,30.986338 27.8704573,30.8417197 27.9216703,31.3875708 C27.9638397,31.8366089 28.2254931,32.4438951 27.4759957,32.6546589 C27.0746243,32.7675573 26.6481546,32.8287419 26.2768607,33.003777 C25.2812566,33.4731097 24.6593342,34.1772591 24.7145609,35.3743932 C24.7749698,36.6847264 24.6985568,38.0007722 24.737627,39.3126588 C24.7592198,40.0372031 24.3114113,39.9833345 23.8258028,39.9983175 C23.3099644,40.0141523 22.9941004,39.928564 23.0012641,39.2935668 C23.0293093,36.805893 23.0317988,34.3175177 23.0001464,31.8299442 C22.9917125,31.1665345 23.3485774,31.1589678 23.8390125,31.1419303 C24.3708041,31.1234897 24.6362681,31.2864483 24.5824132,31.8451777 C24.5566035,32.1124157 24.5779422,32.3841637 24.5779422,32.6538571 C24.6523229,32.6891347 24.7267036,32.7243622 24.8010843,32.7596398" id="Fill-14" fill="#003781"></path>
                        <path d="M12.7477143,35.5218301 C12.7455042,37.2510943 13.9454749,38.5908687 15.5029433,38.5979756 C17.0282472,38.6048837 18.2687924,37.2327332 18.282268,35.5237834 C18.2960387,33.7809925 17.0683299,32.4197316 15.4843528,32.4214879 C13.9690818,32.4231988 12.7499305,33.8043345 12.7477143,35.5218301 M15.4625656,39.9999874 C12.8990969,39.9978858 10.9879669,38.0332968 11.000057,35.4126889 C11.0116722,32.9276407 12.974885,31.0049013 15.5055991,31.000009 C18.0527888,30.9951836 19.9936242,32.9325728 19.9999843,35.4862798 C20.0063621,38.0712398 18.06533,40.0021343 15.4625656,39.9999874" id="Fill-9" fill="#003781"></path>
                        <path d="M2.94851102,32.4984096 C3.12510344,32.3545076 3.3095611,32.217271 3.47708593,32.0655559 C4.37768219,31.2500818 5.48187322,30.9375143 6.74512267,31.0667171 C7.77371712,31.1719951 8.65267141,31.8854136 8.7877834,32.8748061 C8.9383754,33.9776869 8.94198239,35.0972092 8.98301195,36.2102427 C9.00916265,36.920174 8.95285347,37.6331069 8.99728963,38.3416256 C9.03406093,38.9274304 8.69380117,39.0023389 8.15180022,38.999558 C7.59737519,38.9966888 7.2436393,38.9476915 7.26037174,38.3167297 C7.29704285,36.937301 7.25746611,35.5560183 7.23086453,34.1757067 C7.21673713,33.4411002 6.93874811,32.8155237 6.12251543,32.4890957 C5.33248356,32.1731734 4.62681526,32.4244722 3.99228491,32.8290311 C3.16984018,33.3533906 2.66320782,34.0273905 2.70423738,34.9874729 C2.75192985,36.1026252 2.68404823,37.2215295 2.72633022,38.3370349 C2.74832286,38.9171012 2.44157808,39.0131095 1.88935732,38.9986751 C1.38613156,38.9854768 0.995874856,38.9875073 1,38.373187 C1.02202556,35.1244888 1.02362867,31.8756141 1.00018321,28.6269601 C0.99527369,27.9493405 1.46678796,28.0276479 1.96029487,28.0028403 C2.52328651,27.9745896 2.74085839,28.1543347 2.72432633,28.6654958 C2.69081134,29.7001336 2.71285409,30.7363163 2.71796399,31.7718811 C2.71901603,31.9879989 2.745818,32.2041168 2.76074695,32.4202346 C2.82331828,32.4462782 2.8858896,32.4723219 2.94851102,32.4984096" id="Fill-5" fill="#003781"></path>
                        <path d="M37.028681,16.7165099 C40.4213506,16.8048022 43.5151974,13.9111807 43.5255286,10.1662557 C43.5356219,6.49914523 40.6961149,3.60999419 37.072612,3.55849035 C33.4953401,3.50763846 30.5925357,6.43506813 30.5227981,10.0618044 C30.4549466,13.5917731 33.3702173,16.8072703 37.028681,16.7165099 M46.9990411,10.1586652 C47.035934,12.7960714 46.0036704,15.0795168 44.6875343,17.2587438 C42.7161591,20.5227646 40.3299005,23.4684022 37.8130449,26.3089832 C36.9949162,27.2323734 36.9752738,27.2212903 36.113214,26.3299852 C33.2910955,23.4122882 30.7198666,20.3009628 28.8415057,16.6559254 C27.8148082,14.6635745 26.975565,12.5862841 27.0005435,10.3133164 C27.0451185,6.26104477 28.7973906,3.12722721 32.3566761,1.19611273 C37.4618269,-1.57373196 43.7855456,0.650293135 46.1414435,5.97702858 C46.7280949,7.30346194 46.9711645,8.71148184 46.9990411,10.1586652" id="Fill-3" fill="#FB2470"></path>
                        <path d="M19.3592896,9.20250201 C18.6015355,8.50483765 17.9796185,7.79185265 17.2265053,7.26202524 C12.9730957,4.26943897 7.2138773,6.58460438 5.96456701,11.5828607 C4.97036291,15.5604309 6.93213277,19.2626436 10.7757111,20.7437771 C13.4706386,21.7823142 16.8176021,20.7112955 18.1924467,18.3705036 C18.6494753,17.5924174 18.530206,17.3896144 17.6043149,17.3854737 C16.6222698,17.381103 15.6398998,17.3681287 14.6583187,17.3887863 C14.1944218,17.39854 14.0067932,17.2376042 14.0169566,16.7640905 C14.039743,15.706368 14.0370514,14.6475414 14.0162605,13.5897269 C14.0078606,13.1640614 14.1337198,12.987299 14.5948322,12.9893233 C17.8610918,13.0037238 21.1274906,12.999399 24.3937966,12.9918997 C24.767383,12.9910256 24.9978,13.0567249 25,13.5049803 C25.0186373,17.7458079 23.7365628,21.4624211 20.4811628,24.3453244 C18.8019264,25.832393 16.8055824,26.6317809 14.5517189,26.904884 C7.9692181,27.7023856 2.55578768,23.3740969 0.760298604,18.076927 C-1.40808082,11.6797074 1.14284187,4.59977596 7.37653824,1.39730148 C9.49990166,0.306453287 11.8052783,-0.191214569 14.1816131,0.0669819743 C18.0568882,0.488000607 21.2010013,2.26970398 23.5454072,5.39543723 C23.8638607,5.82004448 23.8187054,6.04635752 23.3746248,6.34812358 C22.2490389,7.11309755 21.1630857,7.9353054 20.058662,8.73105868 C19.8186849,8.90395651 19.5680339,9.06231583 19.3592896,9.20250201" id="Fill-1" fill="#003781"></path>
                        <path d="M50.3138298,3.83765802 L50.8882979,3.83765802 C51.1719872,3.83765802 51.3998218,3.76402824 51.5718085,3.61676647 C51.7437952,3.4695047 51.8297872,3.28232538 51.8297872,3.05522289 C51.8297872,2.78908716 51.7535469,2.59835941 51.6010638,2.48303393 C51.4485808,2.36770845 51.2074485,2.31004657 50.8776596,2.31004657 L50.3138298,2.31004657 L50.3138298,3.83765802 Z M52.6223404,3.03393214 C52.6223404,3.31781025 52.5469866,3.56886118 52.3962766,3.78709248 C52.2455666,4.00532378 52.0336893,4.16766414 51.7606383,4.27411843 L53.0265957,6.37658017 L52.1329787,6.37658017 L51.0319149,4.49234864 L50.3138298,4.49234864 L50.3138298,6.37658017 L49.5265957,6.37658017 L49.5265957,1.6340652 L50.9148936,1.6340652 C51.503549,1.6340652 51.9352823,1.74938896 52.2101064,1.98003992 C52.4849305,2.21069088 52.6223404,2.56198478 52.6223404,3.03393214 Z M47,4.00266134 C47,3.29296607 47.1773032,2.62763673 47.5319149,2.00665336 C47.8865266,1.38566999 48.3741104,0.895987598 48.9946809,0.537591484 C49.6152513,0.179195369 50.2836844,0 51,0 C51.7092234,0 52.3741104,0.177421158 52.9946809,0.532268796 C53.6152513,0.887116434 54.1046081,1.37502462 54.462766,1.99600798 C54.8209238,2.61699135 55,3.28586912 55,4.00266134 C55,4.70171119 54.8280159,5.35816947 54.4840426,5.97205589 C54.1400692,6.5859423 53.6578045,7.07739891 53.037234,7.44644045 C52.4166636,7.815482 51.7375923,8 51,8 C50.2659538,8 49.5886556,7.8163691 48.9680851,7.4491018 C48.3475146,7.08183449 47.8643634,6.59126499 47.518617,5.97737858 C47.1728706,5.36349216 47,4.70525967 47,4.00266134 Z M47.5585106,4.00266134 C47.5585106,4.61654776 47.7127644,5.1905052 48.0212766,5.7245509 C48.3297888,6.25859659 48.7508839,6.67908474 49.2845745,6.98602794 C49.8182651,7.29297115 50.3900679,7.44644045 51,7.44644045 C51.6170244,7.44644045 52.1897137,7.29208405 52.7180851,6.9833666 C53.2464565,6.67464916 53.6657786,6.25682233 53.9760638,5.72987359 C54.2863491,5.20292484 54.4414894,4.62719319 54.4414894,4.00266134 C54.4414894,3.38522645 54.2872356,2.81215611 53.9787234,2.28343313 C53.6702112,1.75471015 53.2526622,1.33510912 52.7260638,1.02461743 C52.1994655,0.714125749 51.6241166,0.558882236 51,0.558882236 C50.3829756,0.558882236 49.8102863,0.713238643 49.2819149,1.02195609 C48.7535435,1.33067353 48.3342214,1.74850036 48.0239362,2.2754491 C47.7136509,2.80239784 47.5585106,3.3781295 47.5585106,4.00266134 Z" id="®" fill="#003781" fill-rule="nonzero"></path>
                    </g>
                </g>
            </g>
        </g>
    </g>
</svg>